<svg width="226" height="214" viewBox="0 0 226 214" fill="none" xmlns="http://www.w3.org/2000/svg">
<g filter="url(#filter0_d)">
<path d="M12 31.8096L112.938 11L213 31.508V31.8096V32.1111V32.7143C209.69 54.7302 202.469 92.7302 193.743 112.333V112.635C171.175 162.698 127.846 191.952 113.403 200.397L112.801 200.698L112.5 201L111.898 200.698C97.4551 191.952 54.1258 163 31.5584 112.937C22.5314 93.3334 15.3099 55.3334 12 33.0159V32.4127V32.1111V31.8096Z" fill="white" fill-opacity="0.25"/>
<g filter="url(#filter1_d)">
<path d="M146.393 108.411L146.695 108.109L146.393 108.411Z" fill="white"/>
<path d="M119.274 175.005L122.287 172.293L122.589 172.594L122.287 172.895C121.986 173.197 121.685 173.498 121.685 174.101C121.685 174.402 121.986 174.703 122.287 175.306L124.999 178.922C125.602 179.826 126.204 180.73 126.204 181.333C126.506 181.935 126.506 182.839 126.204 183.442C125.903 184.044 125.3 184.948 124.396 185.551C123.492 186.154 122.589 186.756 121.685 186.756C120.781 186.756 120.178 186.455 119.575 186.154C119.274 185.852 118.37 185.25 117.767 184.044L115.055 180.429C114.754 179.826 114.151 179.525 113.85 179.525C113.549 179.525 113.247 179.525 112.946 179.826L112.645 180.127V179.525L116.562 176.511L116.863 176.813L116.562 177.114C116.261 177.415 115.959 177.717 115.959 178.018C115.959 178.319 116.261 178.621 116.562 179.223L119.575 183.14C119.877 183.442 120.178 184.044 120.479 184.346C120.781 184.647 121.383 184.948 121.685 185.25C121.986 185.25 122.589 185.551 122.89 185.25C123.191 185.25 123.794 184.948 124.396 184.647C124.999 184.346 125.3 183.743 125.602 183.14C125.903 182.538 125.903 181.935 125.903 181.333C125.903 180.73 125.3 180.127 124.698 178.922L121.986 175.306C121.685 174.703 121.082 174.402 121.082 174.402C120.781 174.402 120.479 174.402 120.178 174.703L119.274 175.005Z" fill="white"/>
<path d="M127.711 168.074L130.122 165.965L140.97 167.773L136.45 162.951C135.847 162.349 135.546 162.047 135.244 162.047C134.943 162.047 134.642 162.047 134.34 162.349L134.039 162.65L133.738 162.349L136.751 159.637L137.052 159.938L136.751 160.239C136.45 160.541 136.148 160.842 136.148 161.143C136.148 161.445 136.45 161.746 136.751 162.047L143.079 169.279L142.778 169.581L131.026 167.773L135.847 172.895C136.45 173.498 136.751 173.799 137.052 173.799C137.354 173.799 137.655 173.799 137.956 173.498L138.258 173.197L138.559 173.498L135.546 176.21L135.244 175.909L135.546 175.607C135.847 175.306 136.148 175.005 136.148 174.703C136.148 174.402 135.847 174.101 135.546 173.799L130.122 167.773C129.519 167.773 129.218 167.773 128.916 167.773C128.615 167.773 128.314 167.773 128.012 168.074C128.314 167.773 128.314 168.074 127.711 168.074Z" fill="white"/>
<path d="M153.625 158.733L150.311 162.349L150.009 162.047L150.311 161.746C150.612 161.445 150.913 161.144 150.612 160.842C150.612 160.541 150.311 160.24 149.708 159.938L144.284 154.816C143.983 154.514 143.682 154.213 143.38 154.213C143.38 154.213 143.079 154.213 142.778 154.213C142.476 154.213 142.175 154.514 142.175 154.514L141.874 154.816L141.572 154.514L144.887 150.898L145.188 151.2L144.887 151.501C144.586 151.802 144.586 152.104 144.586 152.405C144.586 152.706 144.887 153.008 145.49 153.309L150.913 158.432C151.215 158.733 151.516 159.034 151.817 159.034C151.817 159.034 152.119 159.034 152.42 159.034C153.023 159.336 153.324 159.034 153.625 158.733Z" fill="white"/>
<path d="M158.446 135.832C158.446 136.434 158.446 136.736 158.446 137.037C158.446 137.338 158.748 137.941 159.049 138.544L164.172 147.885L163.87 148.186L153.625 145.173C153.023 145.173 152.721 144.872 152.721 144.872C152.42 144.872 152.42 144.872 152.119 144.872C151.817 144.872 151.817 145.173 151.516 145.474L151.215 145.173L154.228 141.557L154.529 141.858C154.228 142.16 154.228 142.762 154.228 142.762C154.228 143.064 154.228 143.064 154.529 143.365C154.831 143.666 155.132 143.666 155.734 143.968L162.665 146.077L159.35 139.749C159.049 139.146 158.748 138.845 158.446 138.544C158.446 138.544 158.145 138.544 157.844 138.544C157.542 138.544 157.241 138.845 156.94 139.146L156.638 138.845L158.446 135.832Z" fill="white"/>
<path d="M165.076 127.394L168.993 129.805L170.5 127.696C170.801 127.093 171.103 126.792 171.103 126.49C171.103 126.189 170.801 125.586 170.199 125.285L170.5 124.984L173.815 127.093L173.513 127.394C172.911 127.093 172.609 127.093 172.609 127.093C172.308 127.093 172.308 127.093 172.007 127.394C171.705 127.394 171.404 127.696 171.404 128.298L169.897 130.408L173.212 132.517C173.513 132.818 173.815 132.818 174.116 132.818H174.417C174.417 132.818 174.719 132.517 174.719 132.216L175.623 130.709C175.924 130.106 176.225 129.805 176.225 129.504C176.225 129.202 176.225 128.901 176.225 128.6C176.225 127.997 175.924 127.696 175.623 126.792L175.924 126.49L177.732 128.901L172.911 136.434L172.609 136.133L172.911 135.832C172.911 135.53 173.212 135.229 173.212 135.229C173.212 134.928 173.212 134.928 173.212 134.626C173.212 134.626 172.911 134.325 172.308 134.024L165.98 130.106C165.377 129.805 165.076 129.504 164.775 129.504C164.473 129.504 164.172 129.805 163.871 130.106L163.569 130.408L163.268 130.106L168.089 122.573L170.199 123.778L169.897 124.08C169.295 123.778 168.993 123.778 168.692 123.778C168.391 123.778 168.089 123.778 167.788 124.08C167.487 124.08 167.487 124.381 166.884 124.984L165.076 127.394Z" fill="white"/>
<path d="M187.073 110.219L185.567 112.93L178.937 114.136C178.937 114.437 178.636 114.738 178.636 114.738C178.636 114.738 178.636 114.738 178.636 115.04V115.341L181.649 116.848C182.252 117.149 182.855 117.149 182.855 117.149C183.156 117.149 183.457 116.848 183.759 116.546L184.06 116.245H184.361L182.252 120.765H181.951L182.252 120.464C182.553 120.162 182.553 119.56 182.252 119.258C182.252 118.957 181.951 118.957 181.348 118.656L174.719 115.341C174.116 115.04 173.513 114.738 173.513 115.04C173.212 115.04 172.911 115.341 172.609 115.642L172.308 115.944H172.007L173.815 112.328C174.417 111.122 174.719 110.52 175.321 109.917C175.623 109.616 176.225 109.315 176.828 109.013C177.431 109.013 178.033 109.013 178.636 109.315C179.239 109.616 179.841 110.219 179.841 110.821C180.143 111.424 180.143 112.328 179.841 113.232L183.759 112.629C184.663 112.328 185.265 112.328 185.567 112.026C186.169 111.122 186.471 110.821 187.073 110.219ZM178.033 115.04C178.335 115.04 178.335 114.738 178.033 115.04C178.335 114.738 178.335 114.738 178.335 114.738C178.937 113.834 178.937 112.93 178.636 112.328C178.335 111.725 178.033 111.122 177.431 110.821C176.828 110.52 176.225 110.52 175.623 110.52C175.02 110.821 174.417 111.123 174.116 111.725C173.815 112.026 173.815 112.328 173.513 112.93L178.033 115.04Z" fill="white"/>
<path d="M181.348 91.8374L184.964 93.0427V93.3441C184.361 93.3441 183.457 93.0427 183.156 93.3441C182.553 93.3441 182.252 93.6454 181.649 93.9467C181.348 94.248 181.047 94.8507 180.745 95.152C180.444 95.7547 180.444 96.3574 180.745 96.6587C181.047 97.2613 181.348 97.5627 181.649 97.5627C181.951 97.5627 182.252 97.5627 182.553 97.5627C183.156 97.2614 183.759 96.6587 184.964 95.7547C185.868 94.8507 186.471 94.248 186.772 93.9467C187.073 93.6454 187.676 93.3441 187.977 93.3441C188.279 93.3441 188.881 93.3441 189.183 93.3441C190.087 93.6454 190.689 94.248 190.991 94.8507C191.292 95.7547 191.292 96.6587 190.991 97.5627C190.991 97.864 190.689 98.1653 190.689 98.4667C190.689 98.768 190.388 99.0693 190.087 99.3707C189.785 99.9733 189.484 100.275 189.484 100.275V100.576L189.785 100.877V101.179L186.169 99.9733V99.672C187.073 99.672 187.676 99.672 187.977 99.672C188.58 99.672 188.881 99.3707 189.183 99.0693C189.484 98.768 189.785 98.1654 190.087 97.5627C190.388 96.96 190.388 96.3573 190.087 95.7547C189.785 95.152 189.484 94.8507 188.881 94.8507C188.58 94.8507 188.279 94.8507 187.977 94.8507C187.676 94.8507 187.375 95.152 187.073 95.152C186.772 95.4534 186.169 95.7547 185.567 96.6587C184.663 97.5627 184.06 97.864 183.759 98.1653C183.457 98.4667 182.855 98.768 182.553 98.768C182.252 98.768 181.649 98.768 181.348 98.768C180.444 98.4667 179.841 97.864 179.54 97.2613C179.239 96.3573 179.239 95.7547 179.54 94.5494C179.841 93.9467 180.143 93.344 180.444 92.7414C180.745 92.44 180.745 92.1387 180.745 92.1387V91.8374C181.649 92.4401 181.348 92.4401 181.348 91.8374Z" fill="white"/>
<path d="M195.812 81.5921L194.908 86.4134H194.607V86.1121C194.607 85.5094 194.607 85.2081 194.306 84.9067C194.306 84.6054 193.703 84.6054 193.1 84.3041L185.868 82.4961C185.266 82.4961 184.964 82.1948 184.663 82.1948C184.663 82.1948 184.362 82.1948 184.362 82.4961C184.06 82.7974 184.06 82.7974 184.06 83.0988V83.4001H183.759L184.964 78.5788H185.266V78.8801C185.266 79.1815 185.266 79.7841 185.266 80.0854C185.266 80.3868 185.868 80.3868 186.471 80.6881L193.703 82.4961C194.306 82.4961 194.607 82.7974 194.908 82.7974C195.21 82.7974 195.21 82.7974 195.21 82.4961C195.511 82.1948 195.511 82.1948 195.511 81.8934L195.812 81.5921Z" fill="white"/>
<path d="M189.183 61.4031L191.894 61.7044V62.0057C191.292 62.0057 190.99 62.0057 190.99 62.0057C190.689 62.0057 190.388 62.307 190.086 62.6084C189.785 62.9097 189.785 63.211 189.484 63.8137L189.183 65.3204L197.62 67.1283C198.222 67.1283 198.825 67.4297 198.825 67.1283C199.126 66.827 199.428 66.5257 199.428 66.2244V65.923H199.729L198.825 70.7443H198.524V70.443C198.524 69.8403 198.524 69.539 198.222 69.2377C197.921 68.9363 197.62 68.9363 197.017 68.9363L188.58 67.1283L188.279 68.3337C188.279 68.9363 187.977 69.2377 188.279 69.539C188.279 69.8403 188.58 70.1417 188.58 70.443C188.881 70.7443 189.183 71.0456 189.785 71.0456V71.347L187.073 70.7443L189.183 61.4031Z" fill="white"/>
<path d="M192.196 45.1312L192.799 41.2139H193.1V41.5152C193.1 41.5152 193.1 41.8165 193.1 42.1179C193.1 42.4192 193.401 42.7205 193.401 43.0218C193.703 43.3232 194.004 43.6245 194.305 43.9258L198.223 47.5418L200.935 48.1445C201.537 48.1445 202.14 48.1445 202.14 48.1445C202.441 47.8432 202.743 47.5418 202.743 47.2405V46.9392H203.044L202.14 51.7604H201.839V51.4591C201.839 50.8565 201.839 50.5551 201.537 50.2538C201.236 50.2538 200.935 49.9525 200.332 49.9525L197.62 49.3498L192.196 51.4591C191.593 51.7604 191.292 51.7604 190.991 52.0618C190.689 52.0618 190.689 52.3631 190.388 52.6644C190.388 52.6644 190.388 52.9658 190.087 53.2671H189.785L190.689 48.4458H190.991V48.7471C190.991 49.0485 190.991 49.3498 190.991 49.6511C190.991 49.9525 191.292 49.9525 191.593 49.9525C191.895 49.9525 192.196 49.9525 192.799 49.6511L196.716 47.8432L193.703 45.1312C193.401 44.8298 192.799 44.5285 192.497 44.5285C192.196 44.5285 192.196 44.5285 192.196 44.5285L191.895 44.8298C191.895 44.8298 191.593 45.1312 191.593 45.4325L192.196 45.1312Z" fill="white"/>
<path d="M35.8052 59.8964L36.7092 63.8137H36.4079V63.5124C36.4079 63.2111 36.4079 63.2111 36.1066 62.9097C35.8052 62.6084 35.8052 62.3071 35.5039 62.3071C35.2026 62.0057 34.9013 62.0058 34.2986 61.7044L29.4773 59.8964L26.7653 60.4991C26.1627 60.4991 25.56 60.8004 25.56 61.1017C25.2587 61.4031 25.2587 61.7044 25.2587 62.3071V62.6084H24.9573L24.0533 57.7871H24.3547V58.0884C24.3547 58.6911 24.656 58.9924 24.9573 58.9924C25.2587 58.9924 25.56 58.9924 26.1627 58.9924L28.8746 58.3898L33.0933 54.4725C33.6959 53.8698 33.9973 53.5685 33.9973 53.5685C33.9973 53.2672 34.2986 52.9658 34.2986 52.6645C34.2986 52.6645 34.2986 52.3632 34.2986 52.0618H34.5999L35.5039 56.8831H35.2026V56.5818C35.2026 56.2805 34.9012 55.9791 34.9012 55.9791C34.5999 55.6778 34.5999 55.6778 34.2986 55.6778C33.9973 55.6778 33.6959 55.9791 33.3946 56.2805L30.3813 59.2938L34.2986 60.8004C34.9013 61.1018 35.2026 61.1017 35.5039 61.1017C35.5039 61.1017 35.8052 61.1018 35.8052 60.8004L36.1066 60.4991C36.1066 60.1978 36.1066 60.1978 36.1066 59.8964H35.8052Z" fill="white"/>
<path d="M38.819 76.7709L34.2991 77.9763L34.9017 80.3869C35.2031 80.9896 35.2031 81.2909 35.5044 81.5922C35.8057 81.8936 36.4084 81.8936 37.0111 81.5922V81.8936L33.0938 82.7976V82.4962C33.6964 82.1949 33.9978 82.1949 33.9978 81.8936C34.2991 81.5922 34.2991 81.5922 34.2991 81.2909C34.2991 80.9896 34.2991 80.6882 34.2991 80.0856L33.6964 77.6749L30.0804 78.5789C29.4778 78.5789 29.1765 78.8802 29.1765 78.8802L28.8751 79.1816C28.8751 79.1816 28.8751 79.4829 28.8751 79.7842L29.4778 81.5922C29.4778 82.1949 29.7791 82.7976 30.0804 82.7976C30.3818 83.0989 30.3818 83.4002 30.6831 83.4002C30.9845 83.7015 31.5871 84.0029 32.4911 84.0029V84.3042L29.4778 84.0029L27.3685 75.5656H27.6698V75.8669C27.6698 76.1683 27.9711 76.4696 27.9711 76.4696C27.9711 76.4696 28.2725 76.7709 28.5738 76.7709C28.8751 76.7709 29.1765 76.7709 29.7791 76.4696L37.0111 74.6616C37.6137 74.3603 38.2164 74.3603 38.2164 74.059C38.5177 73.7576 38.5177 73.4563 38.2164 72.8536V72.5523H38.5177L40.627 80.9896L38.2164 81.5922V81.2909C38.8191 80.9896 39.1204 80.6882 39.4217 80.6882C39.723 80.3869 39.723 80.3869 39.723 79.7842C39.723 79.4829 39.723 79.1816 39.4217 78.5789L38.819 76.7709Z" fill="white"/>
<path d="M46.3521 99.6721L42.7362 100.877V100.576C43.3388 100.275 43.9415 99.9735 44.2428 99.3708C44.5441 99.0695 44.8455 98.4668 44.8455 97.8641C44.8455 97.2615 44.8455 96.6588 44.8455 96.3575C44.5441 95.7548 44.2428 95.4535 43.9415 95.1522C43.3388 94.8508 43.0375 94.8508 42.7362 95.1522C42.4348 95.1522 42.1335 95.4535 41.8322 95.7548C41.5308 96.3575 41.2295 97.2615 40.9282 98.7681C40.6268 99.9734 40.6268 100.877 40.3255 101.179C40.0242 101.781 40.0242 102.083 39.7229 102.384C39.4215 102.685 39.1202 102.987 38.5175 102.987C37.6135 103.288 37.0109 103.288 36.1069 102.685C35.2029 102.384 34.6002 101.48 34.2989 100.576C34.2989 100.275 33.9976 99.9734 33.9976 99.6721C33.9976 99.3708 33.9976 99.0695 33.9976 98.4668C33.9976 97.8641 33.9976 97.5628 33.9976 97.2615C33.9976 97.2615 33.9976 96.9601 33.6962 96.9601C33.6962 96.9601 33.3949 96.9601 33.0936 96.9601V96.6588L36.7095 95.4535V95.7548C36.1069 96.0561 35.5042 96.6588 35.2029 96.9601C34.9016 97.2615 34.6002 97.8641 34.6002 98.4668C34.6002 99.0695 34.6002 99.6721 34.6002 100.275C34.9016 100.877 35.2029 101.48 35.8055 101.781C36.4082 102.083 36.7095 102.083 37.3122 102.083C37.6135 102.083 37.9149 101.781 37.9149 101.48C38.2162 101.179 38.2162 100.877 38.5175 100.576C38.5175 100.275 38.8189 99.6721 38.8189 98.4668C39.1202 97.2615 39.1202 96.6588 39.4215 96.0562C39.7228 95.4535 39.7228 95.1522 40.0242 94.8508C40.3255 94.5495 40.6268 94.2482 41.2295 94.2482C42.1335 93.9468 42.7361 93.9468 43.6401 94.5495C44.5441 94.8508 44.8455 95.7548 45.1468 96.6588C45.4481 97.2615 45.4481 97.8641 45.4481 98.7681C45.4481 99.0694 45.4481 99.3708 45.4481 99.3708C45.4481 99.3708 45.4481 99.6721 45.7495 99.6721C46.0508 99.3708 46.0508 99.3708 46.3521 99.6721Z" fill="white"/>
<path d="M46.9542 114.136L49.3648 118.957L52.3781 117.45C52.9808 117.149 53.2821 116.848 53.2821 116.848C53.2821 116.848 53.5834 116.547 53.5834 116.245C53.5834 115.944 53.5834 115.643 53.2821 115.341L52.9808 115.04L53.2821 114.739L55.6927 118.957L55.3914 119.258L55.0901 118.957C55.0901 118.656 54.7888 118.656 54.4874 118.354C54.1861 118.354 54.1861 118.053 53.8848 118.354C53.5834 118.354 53.2821 118.656 52.9808 118.656L46.3515 122.272C45.7488 122.573 45.4475 122.874 45.4475 122.874C45.4475 122.874 45.4475 123.176 45.1462 123.477C45.1462 123.778 45.1462 124.08 45.4475 124.381L45.7489 124.682L45.4475 124.984L43.0369 120.765H43.3382L43.6395 121.066C43.9409 121.368 44.2422 121.669 44.5435 121.669C44.8449 121.669 45.1462 121.669 45.7489 121.368L48.7622 119.861L46.3515 115.04L43.3382 116.546C42.7355 116.848 42.4342 117.149 42.4342 117.149C42.4342 117.149 42.4342 117.45 42.4342 117.752C42.4342 118.053 42.4342 118.354 42.7355 118.656L43.0369 118.957L42.7355 119.258L40.3249 115.04H40.6262L40.9275 115.341C41.2289 115.643 41.5302 115.944 41.8315 115.944C42.1329 115.944 42.4342 115.944 43.0369 115.643L49.6661 112.328C50.2688 112.027 50.5701 111.725 50.5701 111.725C50.5701 111.725 50.8715 111.424 50.8715 111.123C50.8715 110.821 50.8715 110.52 50.5701 110.219L50.2688 109.917L50.5701 109.616L52.3781 113.232L52.0768 113.533L51.7755 113.232C51.7755 112.931 51.4741 112.931 51.1728 112.629C51.1728 112.629 50.8715 112.629 50.5701 112.629C50.2688 112.629 49.9675 112.931 49.6661 112.931L46.9542 114.136Z" fill="white"/>
<path d="M54.488 137.941L51.4747 134.024L51.7761 133.722L52.0774 134.024C52.3787 134.325 52.6801 134.626 52.9814 134.626C53.2827 134.626 53.5841 134.325 54.1867 134.024L60.2133 129.805C60.816 129.504 61.1173 129.203 61.1173 129.203C61.1173 129.203 61.1173 128.901 61.1173 128.6C61.1173 128.299 61.1173 127.997 60.816 127.696L60.5147 127.395L60.816 127.093L63.528 131.011L63.2266 131.312L62.9253 131.011C62.624 130.709 62.3226 130.408 62.0213 130.408C61.72 130.408 61.4187 130.709 60.816 131.011L54.7894 135.229C54.1867 135.53 53.8854 135.832 53.8854 135.832C53.8854 135.832 53.8854 136.133 53.8854 136.434C53.8854 136.736 53.8854 137.037 54.1867 137.037L54.488 137.941Z" fill="white"/>
<path d="M77.0878 148.488C76.4851 148.488 76.1838 148.186 75.8825 148.186C75.5811 148.186 74.9785 148.186 74.3758 148.488L64.4319 151.802L64.1306 151.501L68.9518 141.858C69.2532 141.256 69.2532 140.954 69.2532 140.954C69.2532 140.653 69.2532 140.653 69.2532 140.352C69.2532 140.05 68.9518 139.749 68.9518 139.448L69.2532 139.146L72.2665 142.762L71.9651 143.064C71.6638 142.762 71.3625 142.461 71.0611 142.461C70.7598 142.461 70.7598 142.461 70.4585 142.461C70.1572 142.762 69.8558 143.064 69.5545 143.666L66.2399 150.296L73.1705 148.186C73.7731 147.885 74.3758 147.885 74.3758 147.584C74.3758 147.584 74.6771 147.282 74.6771 146.981C74.6771 146.68 74.6771 146.378 74.3758 146.077L74.6771 145.776L77.0878 148.488Z" fill="white"/>
<path d="M82.2105 164.458L78.8958 161.445L77.0878 162.349C76.4852 162.65 76.4852 162.65 76.1838 162.952C76.1838 162.952 75.8825 163.253 76.1838 163.554C76.1838 163.856 76.4852 164.157 76.7865 164.458L76.4852 164.76L73.7732 162.349L74.0745 162.048C74.3759 162.349 74.6772 162.349 74.9785 162.349C75.2799 162.349 75.8825 162.048 76.7865 161.746L86.1277 157.829L86.4291 158.13L82.5118 167.773C82.2105 168.677 82.2105 168.978 82.2105 169.581C82.2105 169.882 82.5118 170.183 82.8131 170.485L82.5118 170.786L79.1972 167.773L79.4985 167.471C79.7998 167.773 80.1012 168.074 80.4025 168.074C80.7038 168.074 80.7038 168.074 81.0051 167.773C81.3065 167.472 81.3065 167.17 81.6078 166.567L82.2105 164.458ZM82.5118 163.856L84.3198 159.034L79.7998 160.842L82.5118 163.856Z" fill="white"/>
<path d="M112.946 41.8166L47.8586 54.4725L46.6533 54.7738C50.2693 72.5523 55.0906 91.2348 59.0079 100.275C73.1704 131.312 97.5782 153.008 112.946 164.458C128.013 153.008 152.42 131.312 166.583 100.275C170.802 91.2348 175.322 72.5523 178.937 54.7738L112.946 41.8166ZM135.245 65.3204C135.245 64.7177 135.546 64.115 136.149 63.8137C136.45 63.5124 137.053 63.5124 137.655 63.5124C138.258 63.5124 139.162 63.5124 139.764 63.5124C140.367 63.5124 140.97 63.5124 141.572 63.2111C142.175 62.9097 142.476 62.3071 142.476 61.4031C143.079 57.1845 143.38 55.6778 143.38 55.6778C143.38 54.7738 144.284 54.1711 145.188 54.1711H145.49C146.394 54.1711 146.996 55.0751 146.996 55.9791V56.2804C146.996 56.2804 146.996 56.2804 146.996 56.5818C146.996 56.8831 146.996 57.1844 146.695 57.4858C146.695 58.3898 146.394 59.8964 146.092 62.0057C146.092 62.3071 146.092 62.3071 146.092 62.6084C146.092 63.5124 146.695 64.1151 147.298 64.4164C148.202 65.019 149.407 65.019 150.612 65.3204C151.516 65.6217 152.42 66.2244 152.42 67.1283V67.4297V67.731H151.516L136.149 65.6217L135.245 65.3204ZM73.1704 67.4297C73.1704 66.827 73.4717 66.2244 74.0744 65.923C74.9784 65.3204 76.1837 65.3204 77.3891 65.019C78.293 64.7177 79.4984 64.115 79.4984 62.6084C79.4984 62.6084 79.4984 62.3071 79.4984 62.0057C78.8957 57.7871 78.5944 56.2804 78.5944 56.2804V55.9791C78.5944 55.0751 79.197 54.4725 80.101 54.1711H80.4024C81.3064 54.1711 81.909 54.7738 82.2103 55.6778C82.2103 55.6778 82.5117 57.1845 83.1143 61.4031C83.1143 62.3071 83.717 62.9097 84.0183 63.2111C84.621 63.5124 85.2236 63.5124 85.8263 63.5124C86.429 63.5124 87.333 63.5124 87.9356 63.5124C88.5383 63.5124 89.1409 63.5124 89.4423 63.8137C89.7436 64.115 90.0449 64.4164 90.3463 65.3204V65.6217H89.4423L74.0744 67.731H73.7731H73.4718V68.0323V67.731C73.1704 67.731 73.1704 67.4297 73.1704 67.4297ZM73.7731 73.4563C72.8691 73.4563 71.6638 72.5523 71.6638 71.6483V71.347C71.6638 70.443 72.5678 69.2377 73.4718 69.2377L82.2103 68.0323L83.717 67.731L90.9489 66.5257H91.2503C92.1543 66.5257 93.3596 67.4297 93.3596 68.3337V68.635C93.3596 69.8403 92.4556 70.7443 91.5516 70.7443L87.333 71.347L73.7731 73.155C73.7731 73.4563 73.7731 73.4563 73.7731 73.4563ZM84.621 73.155L91.2503 72.251L93.6609 89.1255L96.6742 110.219L80.4024 112.629L74.9784 74.6616L84.621 73.155ZM98.1809 117.752C98.1809 118.355 97.8795 118.957 97.2769 119.259C96.3729 119.861 95.1676 119.861 93.9622 120.163C92.7569 120.464 91.8529 121.067 91.8529 122.573C91.8529 122.875 91.8529 122.875 91.8529 123.176C92.4556 127.394 92.7569 128.901 92.7569 128.901V129.202C92.7569 130.106 92.1543 130.709 91.2503 131.01H90.9489C90.0449 131.01 89.4423 130.408 89.1409 129.504C89.1409 129.504 88.8396 127.997 88.237 123.779C88.237 122.875 87.6343 122.272 87.333 121.971C86.7303 121.669 86.1276 121.669 85.525 121.669C84.9223 121.669 84.0183 121.669 83.4157 121.669C82.813 121.669 82.2103 121.669 81.909 121.368C81.6077 121.067 81.3063 120.765 81.005 119.861V119.56H81.909L97.2769 117.149H97.5782H97.8795H98.1809V117.451C98.1809 117.451 98.1809 117.451 98.1809 117.752ZM98.1809 115.643L90.9489 116.848L89.4423 117.149L80.7037 118.355H80.4024C79.197 118.355 78.293 117.451 78.293 116.547V116.245C78.293 115.341 79.197 114.136 80.101 114.136L88.8396 112.931L97.5782 111.725H97.8795C99.0848 111.725 99.9889 112.629 99.9889 113.533V113.835C99.9889 114.739 99.0848 115.643 98.1809 115.643ZM98.1809 110.219C98.1809 110.219 97.8795 110.219 98.1809 110.219L97.2769 106L92.4556 72.251H133.437L127.711 110.219H98.1809ZM144.887 119.56C144.887 120.163 144.586 120.765 143.983 121.067C143.682 121.368 143.079 121.368 142.476 121.368C141.874 121.368 140.97 121.368 140.367 121.368C139.764 121.368 139.162 121.368 138.559 121.669C137.956 121.971 137.655 122.573 137.655 123.477C137.053 127.696 136.751 129.202 136.751 129.202C136.751 130.106 135.847 130.709 134.943 130.709H134.642C133.738 130.709 133.135 129.805 133.135 128.901V128.6C133.135 128.6 133.135 128.6 133.135 128.298C133.135 127.997 133.135 127.696 133.135 127.394C133.135 126.49 133.437 124.984 133.738 122.875C133.738 122.573 133.738 122.573 133.738 122.272C133.738 121.368 133.135 120.765 132.533 120.464C131.629 119.861 130.122 119.861 129.218 119.56C128.314 119.259 127.41 118.656 127.41 117.752V117.451V117.149H128.314L143.983 119.259L144.887 119.56ZM147.599 116.547C147.599 117.752 146.394 118.355 145.49 118.355H145.188L136.45 117.149L127.711 115.944C126.506 115.643 125.903 114.739 125.903 113.835V113.533C126.205 112.328 127.109 111.725 128.013 111.725H128.314L146.092 114.437C147.298 114.437 147.9 115.643 147.9 116.547C147.599 116.245 147.599 116.245 147.599 116.547ZM145.49 112.629L129.218 110.219L134.642 72.251L150.914 74.6616L145.49 112.629ZM154.228 71.6483C153.927 72.8536 153.023 73.4563 152.119 73.4563H151.818L134.039 70.7443C132.834 70.7443 132.231 69.539 132.231 68.635V68.3337C132.533 67.1283 133.437 66.5257 134.341 66.5257H134.642L152.42 69.2377C153.626 69.539 154.228 70.443 154.228 71.347V71.6483Z" fill="white"/>
<path d="M124.095 91.8374H123.492C123.191 91.8374 122.889 91.5361 122.889 91.2347H122.588C122.287 91.5361 122.287 91.8374 122.287 92.4401C122.287 92.7414 122.287 93.0427 122.588 93.0427C122.588 93.3441 122.889 93.3441 122.889 93.3441C123.191 93.3441 123.492 93.6454 123.793 93.6454C124.095 93.6454 124.095 93.6454 124.396 93.9467C124.396 93.9467 124.396 94.2481 124.396 94.5494V99.3707H124.697C124.999 99.0694 125.3 98.768 125.3 98.4667V93.3441C125.3 92.7414 125.3 92.4401 124.999 92.1387C124.697 92.1387 124.396 91.8374 124.095 91.8374Z" fill="white"/>
<path d="M124.998 80.6881C124.697 80.6881 124.094 80.6881 123.492 80.6881H121.684C121.382 80.6881 121.081 80.6881 121.081 80.0854H120.78C120.478 80.3868 120.177 80.9894 120.177 81.2908C120.177 81.8934 120.478 82.1948 121.382 82.1948H121.684L121.382 82.7974C121.081 83.0988 121.081 83.4001 121.081 83.7014C121.081 84.0027 121.081 84.6054 121.081 84.9067V86.1121H120.177L119.876 87.92H121.985V87.0161C121.985 86.7147 121.985 86.1121 121.684 85.5094C121.684 85.2081 121.684 85.2081 121.684 84.9067V84.6054C121.684 84.0027 121.684 83.4001 121.985 83.0988L122.286 82.4961H123.793C124.396 82.4961 124.697 82.4961 124.998 82.7974C125.3 83.0988 125.3 83.7014 125.3 84.6054V87.92H125.601C125.902 87.92 125.902 87.6187 125.902 87.0161V83.0988C125.902 82.1948 125.902 81.5921 125.601 81.2908C125.3 80.9894 125.3 80.6881 124.998 80.6881Z" fill="white"/>
<path d="M118.369 91.8373C118.369 92.1387 118.369 92.44 118.068 92.7413C118.068 93.0426 117.465 93.344 117.164 93.6453V93.344C117.164 93.344 117.164 93.344 117.164 93.0427V92.7413C117.164 92.44 116.862 92.1387 116.561 92.1387H116.26C115.958 92.1387 115.657 91.8373 115.657 91.536H115.356C115.054 91.8373 115.054 92.44 115.054 92.7413C115.054 93.0426 115.054 93.344 115.356 93.344C115.356 93.6453 115.958 93.6453 116.26 93.6453C116.561 93.6453 116.561 93.9466 116.561 93.9466C115.356 95.152 115.054 96.6586 115.054 98.7679C115.054 99.0693 115.054 99.0693 115.054 99.3706H115.657C115.657 97.5626 115.958 96.056 116.561 95.152C117.164 94.248 117.766 93.6453 118.67 93.6453C119.273 93.6453 119.574 93.9466 119.876 94.248C120.177 94.5493 120.177 95.152 120.177 95.7546C120.177 96.3573 120.177 96.9599 119.876 97.2613H116.862L116.561 99.0693H120.177L120.478 97.864C120.78 96.96 120.78 96.3573 120.78 95.7546C120.78 94.5493 120.478 93.344 120.177 92.7413C119.574 92.1387 118.972 91.8373 118.369 91.8373Z" fill="white"/>
<path d="M112.644 80.6881C112.343 80.6881 111.74 80.6881 111.138 80.6881H109.631C109.33 80.6881 109.028 80.6881 109.028 80.0854H108.727C108.426 80.3868 108.124 80.9894 108.124 81.2908C108.124 81.8934 108.426 82.1948 109.33 82.1948H111.74C112.343 82.1948 112.644 82.1948 112.946 82.4961C113.247 82.7974 113.247 83.4001 113.247 84.3041V87.6187H113.548C113.85 87.3174 114.151 87.3174 114.151 86.7147V83.0988C114.151 82.1948 114.151 81.5921 113.85 81.2908C113.247 80.9894 112.946 80.6881 112.644 80.6881Z" fill="white"/>
<path d="M105.713 80.6881H102.399C102.097 80.6881 101.796 80.6881 101.796 80.0854H101.495C101.495 80.0854 101.193 80.3868 101.193 80.6881C101.193 80.9894 101.193 81.2908 101.193 81.2908C101.193 81.8934 101.495 82.1948 102.097 82.1948H106.015C105.713 82.7974 105.412 83.4001 105.412 84.6054C105.412 84.9067 105.412 85.5094 105.412 86.4134C105.412 86.7147 105.412 87.0161 105.412 87.0161C105.412 87.3174 105.412 87.6187 105.412 87.92C106.015 87.92 106.316 87.3174 106.316 86.4134C106.316 86.1121 106.316 85.8107 106.316 85.5094C106.015 84.3041 106.015 83.7014 106.015 83.4001C106.015 82.7974 106.015 82.4961 106.316 81.8934C106.316 81.5921 106.617 81.5921 106.617 81.2908V80.9895C106.617 80.6881 106.617 80.3868 106.316 80.3868C106.316 80.6881 106.015 80.6881 105.713 80.6881Z" fill="white"/>
<path d="M101.193 88.2213C101.495 88.2213 101.796 88.2213 102.097 87.92C102.399 87.6187 102.399 87.6187 102.399 87.3173V87.016C102.399 86.7147 102.399 86.112 102.399 86.112C102.399 85.5093 102.399 85.208 102.7 85.208H102.399C101.495 85.208 101.193 85.8107 101.193 86.7147C101.193 86.7147 101.193 87.016 101.193 87.6187C101.193 87.92 101.193 87.92 101.193 87.92C101.193 87.92 101.193 87.92 101.193 88.2213Z" fill="white"/>
<path d="M115.958 82.1948C116.26 82.1948 116.561 82.4961 116.862 82.4961C117.164 82.4961 117.164 82.4961 117.465 82.7974C117.465 82.7974 117.465 83.0988 117.465 83.4001V88.2214H117.766C118.068 87.92 118.369 87.6187 118.369 87.3174V82.1948C118.369 81.5921 118.369 81.2908 118.068 80.9895C117.766 80.6881 117.766 80.6881 117.164 80.6881H116.561C116.26 80.6881 115.958 80.3868 115.958 80.0854H115.657C115.356 80.3868 115.356 80.6881 115.356 81.2908C115.356 81.5921 115.356 81.8934 115.657 81.8934C115.657 81.8934 115.657 82.1948 115.958 82.1948Z" fill="white"/>
<path d="M112.042 91.8374H109.028C108.727 91.8374 108.426 91.5361 108.426 91.2347H108.124C108.124 91.2347 107.823 91.5361 107.823 91.8374C107.823 92.1387 107.823 92.4401 107.823 92.4401C107.823 93.0427 108.124 93.3441 109.028 93.3441H112.042C111.439 93.9467 111.138 94.8507 111.138 96.0561C111.138 96.3574 111.138 96.6587 111.138 97.5627C111.138 97.864 111.138 98.1654 111.138 98.1654C111.138 98.4667 111.138 98.768 111.138 99.0694C111.74 99.0694 112.343 98.4667 112.343 97.5627C112.343 97.2614 112.343 96.96 112.343 96.6587C112.343 95.4534 112.343 94.8507 112.343 94.5494C112.343 93.9467 112.644 93.3441 112.946 93.0427C113.247 92.7414 113.247 92.7414 113.247 92.4401V92.1387C113.247 91.8374 113.247 91.5361 112.946 91.5361C112.644 91.8374 112.343 91.8374 112.042 91.8374Z" fill="white"/>
<path d="M105.713 91.8373H105.412C105.111 91.8373 104.809 91.536 104.809 91.2347H104.508C104.207 91.536 104.207 92.1387 104.207 92.44C104.207 92.7413 104.207 93.0427 104.508 93.0427C104.508 93.344 104.809 93.344 105.412 93.344C105.713 93.344 105.713 93.6453 105.713 93.6453V93.9467C105.412 94.5493 105.111 94.8506 105.111 95.152C105.111 95.4533 104.809 95.7546 104.809 96.056C104.809 96.3573 104.508 96.6586 104.508 96.6586C104.508 96.6586 104.207 96.96 103.905 96.96H103.604V95.4533C103.604 94.8506 103.604 94.5493 103.303 94.5493C103.303 94.5493 103.001 94.248 102.7 94.248C102.399 94.248 102.399 93.9467 102.399 93.6453C102.399 93.344 102.399 93.344 102.399 93.0427C102.7 93.0427 103.001 93.0427 103.303 93.0427C103.303 92.7413 103.303 92.7413 103.303 92.44C103.303 91.8373 103.303 91.536 103.001 91.536C103.001 91.2347 102.7 91.2347 102.399 91.2347H102.097C101.796 91.2347 101.495 90.9333 101.495 90.632H101.193C100.892 90.9333 100.892 91.536 100.892 91.8373C100.892 92.44 101.193 92.7413 101.796 93.0427C101.796 93.344 101.796 93.9466 101.796 94.248C101.796 94.5493 101.796 94.8506 101.796 95.152C101.796 95.152 102.097 95.4533 102.399 95.7546C102.7 95.7546 102.7 96.056 102.7 96.3573C102.7 96.6586 102.7 96.96 102.7 97.2613L100.892 97.5626L100.591 99.3706L103.001 99.0693C104.207 99.0693 105.111 98.1653 105.111 96.96C105.111 95.7546 105.412 94.8506 106.015 93.6453C106.316 93.0427 106.316 92.7413 106.316 92.44C106.316 92.1387 106.316 92.1387 106.015 91.8373C106.015 92.1387 106.015 91.8373 105.713 91.8373Z" fill="white"/>
<path d="M189.182 26.7501V27.3527V27.9554C185.566 50.8565 177.732 88.2215 171.404 102.384C156.337 135.832 130.122 158.733 113.247 170.786C96.3726 158.733 70.1568 135.832 55.0903 102.384C48.7623 88.2215 40.9277 50.8565 37.3118 27.9554V27.3527V27.0514V26.7501L12 31.8727V32.174V32.4754V33.078C15.3146 55.3765 22.5466 93.3442 31.5865 112.931C54.1863 162.952 97.5779 191.879 112.042 200.618L112.644 200.919L112.946 200.618L113.548 200.317C128.012 191.879 171.404 162.65 194.004 112.629V112.328C202.742 92.7415 209.974 54.7738 213.289 32.7767V32.174V31.8727V31.5714L189.182 26.7501ZM211.18 33.6807C207.865 55.9792 200.633 93.0428 191.894 112.027C190.99 114.136 190.086 116.245 188.881 118.053C173.815 148.186 150.913 170.183 133.436 183.743L132.834 184.346C124.396 190.975 117.164 195.495 112.644 198.207C108.426 195.495 101.495 191.277 93.6606 185.25C106.316 178.018 112.644 173.498 112.946 173.197L113.247 172.895C113.548 172.594 113.85 172.293 114.151 172.293L114.452 171.991C115.356 171.389 116.26 170.786 117.164 169.882L117.466 169.581C118.37 168.677 119.575 168.074 120.479 167.17L120.78 166.869C121.986 165.965 122.89 165.061 124.095 164.157L124.396 163.856C125.602 162.952 126.506 162.048 127.711 160.842L128.012 160.541C129.218 159.637 130.423 158.432 131.327 157.528C131.628 157.528 131.628 157.226 131.93 157.226C133.135 156.021 134.34 155.117 135.546 153.912C135.847 153.912 135.847 153.61 136.148 153.309C137.354 152.104 138.559 150.898 139.764 149.994C140.066 149.693 140.066 149.693 140.367 149.392C141.572 148.186 142.778 146.981 143.682 145.776C143.983 145.474 143.983 145.173 144.284 145.173C145.489 143.968 146.393 142.762 147.599 141.557C147.9 141.256 148.201 140.954 148.201 140.653C149.407 139.448 150.311 138.242 151.516 136.736C151.817 136.434 152.119 136.133 152.119 135.832C153.023 134.626 154.228 133.12 155.132 131.914C155.433 131.613 155.735 131.312 156.036 130.709C156.94 129.504 158.145 127.997 159.049 126.491C159.351 126.189 159.652 125.587 159.953 125.285C160.857 123.779 161.761 122.573 162.665 121.067C162.967 120.464 163.268 120.163 163.569 119.56C164.473 118.053 165.377 116.848 165.98 115.341C166.281 114.739 166.583 114.136 166.884 113.533C167.487 112.328 168.391 110.821 168.993 109.616C169.897 107.808 171.103 105.699 172.007 103.589C172.007 103.589 172.007 103.589 172.007 103.288C178.636 88.8242 186.169 52.6645 189.785 29.462L211.18 33.6807ZM34.5998 29.462C38.2158 52.6645 45.749 88.8242 52.3783 103.288C67.4448 136.736 93.6606 159.637 110.836 171.991C108.727 173.498 102.399 177.717 91.8526 183.743C73.1701 168.978 48.7624 145.173 33.6958 111.725C25.2586 93.0428 18.0266 55.6778 14.4107 33.3794L34.5998 29.462Z" fill="white"/>
<path d="M112.945 11.0808L41.5301 25.846L45.7487 49.6512L112.945 36.3926L179.841 49.6512L184.059 25.846L112.945 11.0808ZM178.033 47.2405L113.548 34.2833H113.247H112.945L47.858 47.2405L44.2421 27.654L113.247 13.4915L181.649 27.9554L178.033 47.2405Z" fill="white"/>
<path d="M53.5833 36.3927L54.7887 40.6113C55.09 41.214 55.09 41.5153 55.09 42.118C55.09 42.4193 54.7886 42.7206 54.4873 43.0219H54.186L52.6793 36.0913C52.6793 35.79 52.6793 35.1873 52.6793 34.5847C52.6793 34.2834 52.6793 34.2834 52.6793 34.2834C52.6793 33.982 52.378 33.982 51.7753 33.982C51.1727 33.982 50.8714 33.982 50.57 33.982C50.2687 33.982 49.9673 33.6807 49.9673 33.078C49.9673 32.4754 49.9674 32.174 50.2687 31.5714H50.57C50.57 31.8727 50.8713 32.174 51.474 31.8727H52.0767C52.9807 31.8727 53.282 32.174 53.5833 33.078C53.5833 33.3794 53.5833 33.6807 53.5833 33.982C53.282 34.886 53.282 35.79 53.5833 36.3927Z" fill="white"/>
<path d="M59.0071 37.2966L58.7058 36.0912C58.7058 35.7899 58.4045 35.1872 58.4045 33.9819C58.4045 33.6806 58.4045 33.3792 58.4045 33.3792C58.4045 33.0779 58.1032 32.7766 57.8018 33.0779C57.1992 33.0779 56.8978 33.0779 56.8978 33.0779C56.5965 33.0779 56.5965 33.0779 56.2952 32.7766C55.6925 32.4753 55.3912 32.1739 55.3912 31.8726C55.3912 31.2699 55.3912 30.9686 55.6925 30.3659H55.9938C55.9938 30.6673 56.2952 30.9686 56.8978 30.6673H57.5005C58.1031 30.6673 58.7058 30.9686 58.7058 31.5713C58.7058 31.8726 58.7058 31.8726 58.7058 32.4752C58.7058 33.3792 58.7058 34.2832 59.0071 34.5846C59.0071 34.8859 59.3085 35.1872 59.3085 35.7899C59.9111 36.9952 59.9111 37.5979 60.2125 37.8992C60.2125 38.2005 60.2125 38.2005 60.2125 38.5019V39.1045L56.2952 40.0085V38.2005L59.0071 37.2966Z" fill="white"/>
<path d="M66.5403 31.27L62.9243 31.8727C62.623 32.174 62.623 32.7767 62.623 33.6807C62.623 33.982 62.9243 34.5847 63.2256 35.79C63.2256 36.0913 63.527 36.3926 63.527 36.694C63.8283 37.8993 63.527 38.502 62.623 38.8033H62.3217C62.3217 38.502 62.3217 37.8993 62.3217 37.2967L62.0203 35.4886C61.719 33.982 61.719 33.078 62.3217 32.174C61.4177 32.4753 61.1163 32.174 60.815 31.27C60.815 30.9687 60.815 30.6674 60.815 30.366C60.815 30.0647 60.815 29.7634 61.1163 29.7634H61.4177C61.4177 30.0647 61.719 30.366 62.3217 30.0647L65.9376 29.462C66.2389 29.462 66.5403 29.462 66.8416 29.462C67.1429 29.462 67.1429 29.7634 67.1429 30.0647V30.366C67.1429 30.6674 67.1429 30.9687 67.1429 30.9687C66.8416 31.5714 66.8416 31.8727 67.1429 32.4753C67.1429 32.7767 67.4443 33.3793 67.7456 34.5847C67.7456 34.886 68.0469 35.4886 68.0469 35.4886C68.3482 36.3926 68.0469 36.9953 67.1429 37.2967H66.8416C66.8416 36.9953 66.8416 36.694 66.8416 36.3927C66.8416 36.0913 66.8416 36.0913 66.5403 35.79C66.2389 34.886 66.2389 34.2833 65.9376 33.6807C66.2389 32.7767 66.2389 31.8727 66.5403 31.27Z" fill="white"/>
<path d="M67.7461 24.942C68.0474 24.942 68.0474 25.2434 68.3488 25.2434H68.6501C68.9514 25.2434 69.2527 25.5447 69.2527 25.846C69.2527 25.846 69.2527 26.1474 69.2527 26.75V27.0514C69.2527 27.3527 69.2527 27.654 69.2527 27.654C69.2527 27.9554 69.2527 27.9554 69.5541 27.9554C69.5541 27.9554 69.8554 27.9554 70.1567 27.9554L72.5674 27.3527C73.17 27.3527 73.4714 27.3527 73.7727 27.654C74.074 27.9554 74.3754 28.558 74.3754 29.1607L74.6767 30.0647C74.6767 30.6673 74.6767 31.27 74.6767 31.5713L73.4714 33.3793C73.4714 34.5846 73.17 34.886 73.4714 35.1873C73.4714 35.1873 73.4714 35.1873 73.4714 35.4886V35.79C73.4714 36.0913 73.4714 36.3926 73.1701 36.6939C72.8687 36.6939 72.5674 36.694 72.266 36.0913C72.266 35.4886 72.2661 34.5846 72.8687 33.6806L73.7727 32.174C74.074 31.8727 74.074 31.27 74.074 30.9687V30.366C74.074 30.0647 73.7727 29.7634 73.7727 29.7634C73.4714 29.7634 73.17 29.7634 72.5674 29.7634L70.4581 30.366C69.8554 30.366 69.5541 30.366 69.2527 30.366C68.9514 30.0647 68.9514 29.7633 68.9514 29.462C68.9514 29.1607 68.9514 28.558 68.9514 27.9554V27.3527V27.0514C68.9514 27.0514 68.9514 26.75 68.6501 26.75H68.0474C67.7461 26.75 67.7461 26.4487 67.4448 26.1474C67.7461 25.5447 67.7461 25.2434 67.7461 24.942Z" fill="white"/>
<path d="M81.6072 28.2566C80.7032 28.2566 80.4019 27.9553 80.1006 27.0513C80.1006 26.7499 80.1006 26.1473 80.1006 25.8459H80.4019C80.4019 26.1473 80.7032 26.1473 81.3059 26.4486H81.9086C82.2099 26.4486 82.5112 26.4486 82.8126 26.7499C83.1139 26.7499 83.1139 27.0513 83.1139 27.6539C83.1139 27.9553 83.1139 28.2566 83.1139 28.2566C82.8126 28.2566 82.5112 28.5579 82.2099 28.5579C82.2099 28.8593 81.9086 28.8592 81.9086 29.1606V29.4619C81.9086 29.7632 81.9086 30.0646 81.9086 30.6672C81.9086 30.9686 82.2099 31.2699 82.5112 31.5712L83.4152 32.1739C84.0179 32.4752 84.3192 33.0779 84.3192 33.3792C84.3192 33.9819 84.3192 34.2832 84.0179 34.8859H83.7166C83.7166 34.5845 83.4152 34.2832 83.1139 33.9819L79.1966 30.9686C78.5939 31.2699 78.5939 31.5712 78.5939 32.1739C78.5939 32.4752 78.5939 32.4752 78.8953 32.7766C78.8953 32.7766 79.4979 33.3792 80.1006 33.6805C80.4019 33.9819 80.7033 34.2832 80.7033 34.5845C80.7033 35.1872 80.7032 35.4885 80.1006 35.4885L78.2926 35.7899V35.4885C78.5939 35.4885 78.5939 35.1872 78.5939 34.8859C78.5939 34.8859 78.2926 34.2832 77.9913 33.6805C77.6899 33.3792 77.6899 33.0779 77.6899 32.7766C77.3886 31.8726 77.9913 30.9686 78.5939 30.3659L77.3886 29.4619C76.786 29.1606 76.4846 28.5579 76.4846 28.2566C76.4846 27.6539 76.4846 27.3526 76.7859 26.7499H77.0873C77.0873 27.0513 77.3886 27.3526 77.6899 27.6539L81.0046 30.3659C81.3059 29.4619 81.3059 28.8593 81.6072 28.2566Z" fill="white"/>
<path d="M92.4549 24.038L95.1669 23.4353C95.7695 23.4353 96.3722 23.4353 96.6735 23.7367C96.9748 24.038 97.2762 24.6406 97.5775 25.2433V25.846C97.5775 26.4486 97.5775 26.75 97.5775 27.0513C97.5775 27.3526 97.2762 27.6539 96.9749 27.9553L95.4682 29.4619C95.1669 29.7632 95.1669 30.0646 95.1669 30.6672C95.1669 30.6672 95.1669 30.6672 95.1669 30.9686V31.2699C95.1669 31.5712 95.1669 31.8726 94.8655 31.8726C94.5642 31.8726 94.2629 31.8726 94.2629 31.2699C94.2629 30.6673 94.2629 30.3659 94.2629 30.0646C94.2629 29.7633 94.5642 29.4619 95.1669 28.8593L96.3722 27.6539C96.6735 27.3526 96.9748 26.7499 96.6735 26.4486V26.1473C96.6735 25.846 96.3722 25.5446 96.3722 25.5446C96.0708 25.5446 95.7695 25.5446 95.4682 25.5446L92.4549 26.1473C91.5509 26.4486 91.2496 26.1473 90.9482 25.2433C90.9482 24.6406 90.9482 24.3393 91.2496 23.7367H91.5509C91.5509 24.038 91.8522 24.038 92.4549 24.038ZM92.1535 27.3526L93.9615 34.5846C93.9615 34.8859 93.9615 35.1872 93.6602 35.4885H93.3589L92.1535 28.8593C91.8522 27.9553 91.8522 27.6539 92.1535 27.3526Z" fill="white"/>
<path d="M104.81 23.7367L100.892 24.3393C100.591 24.6407 100.591 25.2433 100.591 26.1473C100.591 26.4486 100.892 27.0513 101.194 28.2566C101.194 28.558 101.495 28.8593 101.495 29.1606C101.796 30.3659 101.495 30.9686 100.591 31.2699C100.591 30.9686 100.591 30.366 100.591 29.7633L100.29 27.9553C99.9883 26.4486 99.9883 25.5447 100.591 24.6407C99.687 24.942 99.3856 24.6407 99.0843 23.7367C99.0843 23.4354 99.0843 23.134 99.0843 22.8327C99.0843 22.5314 99.0843 22.23 99.3856 22.23H99.6869C99.6869 22.5314 99.9883 22.8327 100.591 22.5314L104.207 21.9287C104.508 21.9287 104.81 21.9287 105.111 21.9287C105.412 21.9287 105.412 22.23 105.412 22.5314V22.8327C105.412 23.134 105.412 23.4353 105.412 23.4353C105.111 24.038 105.111 24.3393 105.412 24.942C105.412 25.2433 105.714 25.846 106.015 27.3526C106.316 27.654 106.316 27.9553 106.316 28.2566C106.618 29.1606 106.316 29.7633 105.412 30.0646H105.111C105.111 29.7633 105.111 29.462 105.111 29.1606C105.111 28.8593 105.111 28.8593 104.81 28.558C104.508 27.654 104.508 27.0513 104.207 26.4486C104.508 25.2433 104.508 24.3393 104.81 23.7367Z" fill="white"/>
<path d="M112.041 22.23C111.438 22.23 111.137 21.9287 110.836 21.326C110.836 20.7234 110.836 20.422 110.836 19.8194H111.137C111.137 20.1207 111.438 20.422 112.041 20.1207H112.342C112.945 20.1207 113.246 20.422 113.548 21.0247C113.548 21.326 113.548 21.6273 113.548 21.9287C113.246 21.9287 112.945 22.23 112.644 22.23C112.342 22.5314 112.342 22.8327 112.041 23.4353C112.041 24.038 111.74 24.3393 112.041 24.6407C112.041 24.942 112.342 25.5446 112.945 25.846L114.452 26.75V28.8593L109.028 30.0646V28.2566L112.644 27.654L110.233 26.4486C109.932 26.1473 109.63 25.846 109.63 25.5447L109.329 24.3393C109.329 24.038 109.329 24.038 109.028 23.7367C109.028 23.7367 108.726 23.7367 108.425 23.7367C107.521 24.038 107.22 23.7367 106.918 22.8327C106.918 22.23 106.918 21.9287 106.918 21.326H107.22C107.22 21.6274 107.521 21.9287 108.124 21.9287H108.425C108.726 21.9287 109.028 21.9287 109.329 21.9287C109.63 22.23 109.63 22.23 109.63 22.8327C109.63 22.8327 109.63 23.134 109.63 23.4353C109.63 24.038 109.63 24.3393 109.63 24.3393C109.63 24.6407 109.932 24.942 110.233 25.2433L111.137 25.5447C111.438 23.7367 111.438 22.8327 112.041 22.23Z" fill="white"/>
<path d="M117.766 23.7367L117.465 23.4354C118.068 22.8327 118.068 22.5314 118.068 21.6274C118.068 21.3261 118.068 21.3261 117.766 21.0247C117.766 21.0247 117.465 21.0247 116.862 21.0247C116.26 21.0247 115.958 21.0247 115.958 21.0247C115.657 21.0247 115.657 20.4221 115.356 20.1207C115.356 19.8194 115.356 19.2167 115.356 18.6141H115.657C115.657 18.9154 115.958 19.2167 116.561 18.9154H117.164C118.068 18.9154 118.369 19.2167 118.67 20.1207V20.7234C118.67 21.3261 118.67 21.9287 118.67 22.5314C118.369 23.134 118.068 23.7367 117.766 23.7367Z" fill="white"/>
<path d="M123.794 22.2301L122.287 23.7368H121.986L122.89 21.3261C122.89 21.0248 123.191 20.7234 123.191 20.4221C123.191 20.1208 123.492 20.1208 123.794 20.1208C124.095 20.1208 124.095 19.8194 124.396 20.1208C124.698 20.1208 124.698 20.1208 124.698 20.4221C124.698 20.7234 124.698 20.7234 124.698 21.0248C124.698 21.0248 124.396 21.6274 123.794 22.2301Z" fill="white"/>
<path d="M129.82 31.5712L130.423 27.6539C130.724 26.7499 130.724 25.846 130.724 25.5446C130.724 25.2433 130.122 24.942 129.519 24.6406L126.807 24.038C125.903 23.7366 125.602 23.4353 125.903 22.5313C125.903 21.9287 126.204 21.6273 126.807 21.326H127.108C127.108 21.6273 127.41 21.9286 127.711 21.9286L129.519 22.23C130.423 22.5313 131.026 22.5313 131.327 22.8326C131.628 23.134 131.93 23.4353 131.93 23.7366C131.93 24.038 131.93 24.942 131.93 25.8459L131.026 30.6672C130.724 31.2699 130.423 31.5712 129.82 31.5712Z" fill="white"/>
<path d="M140.668 33.6806L138.257 33.0779L139.161 31.2699L140.065 31.5713L140.366 30.3659C140.366 29.7633 140.668 29.462 140.668 28.8593C140.969 28.558 140.969 27.9553 141.27 27.9553L141.873 27.3526H141.572C140.668 27.0513 140.366 26.75 140.668 25.846C140.668 25.2433 140.969 24.942 141.572 24.6407H141.873C141.873 24.942 142.174 25.2433 142.476 25.2433L144.284 25.5447C145.188 25.846 145.79 25.846 146.092 26.1473C146.393 26.4486 146.694 26.75 146.694 27.0513C146.694 27.3526 146.694 28.2566 146.694 29.1606L145.79 33.6806C145.79 34.2832 145.489 34.5846 145.188 34.5846H144.886L145.79 30.6673C146.092 29.7633 146.092 28.8593 146.092 28.558C146.092 28.2566 145.489 27.9553 144.886 27.654L143.078 27.3526L142.476 27.9553C142.174 28.2566 141.873 28.8593 141.572 29.4619V29.7633C141.572 30.0646 141.572 30.3659 141.572 30.6673C141.572 31.5713 141.572 32.1739 141.572 32.4752L140.668 33.6806Z" fill="white"/>
<path d="M152.721 34.5846L153.926 34.8859L153.022 36.6939L146.694 35.4886L147.598 33.6806L152.118 34.5846C152.42 34.2833 152.42 33.3793 152.721 32.4753C153.022 31.5713 153.022 30.9686 152.721 30.6673C152.721 30.366 152.118 30.0647 151.516 29.7633L149.406 29.1606C148.502 28.8593 148.201 28.558 148.502 27.654C148.502 27.0513 148.804 26.75 149.406 26.4487H149.708C149.708 26.75 150.009 27.0513 150.31 27.0513L151.516 27.3527C152.42 27.654 153.022 27.654 153.324 27.9553C153.625 28.2567 153.926 28.558 153.926 28.8593C153.926 29.1607 153.926 29.7633 153.625 30.6673L153.324 31.8726C153.324 33.3793 153.022 34.2833 152.721 34.5846Z" fill="white"/>
<path d="M157.241 33.6805L156.94 33.3792C157.542 33.0779 157.844 32.7766 158.145 31.8726C158.145 31.5712 158.145 31.5712 158.145 31.2699C158.145 30.9686 157.844 30.9686 157.241 30.9686C156.94 30.9686 156.337 30.6672 156.337 30.3659C156.036 30.0646 156.036 29.7632 156.337 29.1606C156.337 28.8593 156.638 28.2566 156.94 27.9553H157.241C157.241 28.2566 157.542 28.5579 157.844 28.5579L158.446 28.8593C159.049 29.1606 159.35 29.7632 159.35 30.6672V31.2699C159.35 31.8726 159.049 32.4752 158.748 32.7766C157.844 33.3792 157.542 33.6805 157.241 33.6805Z" fill="white"/>
<path d="M161.761 36.6938H162.062C162.966 35.4885 163.87 34.2832 164.774 32.4752C164.172 32.1739 163.87 31.5712 164.171 30.9686C164.171 30.3659 164.473 30.0646 164.774 29.7633H165.076C165.076 30.0646 165.075 30.3659 165.377 30.3659L165.979 30.6672C166.582 30.9686 166.582 31.2699 166.582 32.1739C166.582 32.4752 166.582 32.4752 166.281 32.7766C165.979 32.7766 165.678 32.7766 165.377 32.7766C164.774 34.2832 163.87 35.4885 162.966 36.6938L165.377 37.2965C165.979 36.6939 166.582 35.7899 168.089 34.5845C168.39 34.2832 168.691 33.9819 168.691 33.9819C168.691 33.6805 168.691 33.6805 168.39 33.3792C167.787 33.0779 167.787 32.7766 167.787 32.1739C167.787 31.5712 168.089 31.2699 168.691 30.9686H168.993C168.993 31.2699 168.993 31.2699 169.294 31.5712L169.897 31.8726C170.499 32.1739 170.499 32.4752 170.499 33.0779C170.499 33.3792 170.198 33.6805 170.198 33.6805C170.198 33.9819 169.897 34.2832 169.294 34.5845C167.787 36.0912 166.883 37.5978 165.979 39.4058L161.46 38.5018C161.46 37.5978 161.46 36.9952 161.46 36.0912C161.46 35.1872 161.46 34.2832 161.46 33.6805C161.46 33.0779 161.761 32.4752 162.062 31.8726C161.46 31.5712 161.158 30.9686 161.46 30.3659C161.46 29.7632 161.761 29.4619 162.062 29.1606H162.364C162.364 29.4619 162.364 29.7633 162.665 29.7633L162.966 30.0646C163.569 30.3659 163.569 30.6672 163.569 31.5712C163.569 31.8726 163.569 31.8726 163.268 32.1739C162.966 32.1739 162.665 32.1739 162.364 32.1739C162.062 32.7766 161.761 33.0779 161.761 33.6805C161.46 34.5845 161.46 35.4885 161.761 36.6938Z" fill="white"/>
<path d="M172.307 36.9952L172.006 36.6939C172.609 36.3925 172.91 36.0912 173.211 35.1872C173.211 34.8859 173.211 34.8859 173.211 34.5846C173.211 34.2832 172.91 34.2832 172.307 34.2832C172.006 34.2832 171.403 33.9819 171.403 33.6806C171.102 33.3792 171.102 33.0779 171.403 32.4752C171.403 32.1739 171.705 31.5713 172.006 31.2699H172.307C172.307 31.5713 172.609 31.8726 172.91 31.8726L173.513 32.1739C174.115 32.4752 174.417 33.0779 174.417 33.9819V34.5846C174.417 35.1872 174.115 35.7899 173.814 36.0912C173.211 36.6939 172.91 36.9952 172.307 36.9952Z" fill="white"/>
</g>
</g>
<defs>
<filter id="filter0_d" x="0" y="0" width="225.289" height="214" filterUnits="userSpaceOnUse" color-interpolation-filters="sRGB">
<feFlood flood-opacity="0" result="BackgroundImageFix"/>
<feColorMatrix in="SourceAlpha" type="matrix" values="0 0 0 0 0 0 0 0 0 0 0 0 0 0 0 0 0 0 127 0"/>
<feOffset dy="1"/>
<feGaussianBlur stdDeviation="6"/>
<feColorMatrix type="matrix" values="0 0 0 0 0.00260869 0 0 0 0 0.00521739 0 0 0 0 0.02 0 0 0 0.2 0"/>
<feBlend mode="normal" in2="BackgroundImageFix" result="effect1_dropShadow"/>
<feBlend mode="normal" in="SourceGraphic" in2="effect1_dropShadow" result="shape"/>
</filter>
<filter id="filter1_d" x="0" y="0.0808411" width="225.289" height="213.838" filterUnits="userSpaceOnUse" color-interpolation-filters="sRGB">
<feFlood flood-opacity="0" result="BackgroundImageFix"/>
<feColorMatrix in="SourceAlpha" type="matrix" values="0 0 0 0 0 0 0 0 0 0 0 0 0 0 0 0 0 0 127 0"/>
<feOffset dy="1"/>
<feGaussianBlur stdDeviation="6"/>
<feColorMatrix type="matrix" values="0 0 0 0 0.00260869 0 0 0 0 0.00521739 0 0 0 0 0.02 0 0 0 0.2 0"/>
<feBlend mode="normal" in2="BackgroundImageFix" result="effect1_dropShadow"/>
<feBlend mode="normal" in="SourceGraphic" in2="effect1_dropShadow" result="shape"/>
</filter>
</defs>
</svg>
